<svg id="svg8502" xmlns="http://www.w3.org/2000/svg" viewBox="0 0 456 212"><style>.st2{fill:#4a86cf}.st4{fill:#7b7979}</style><path d="M423 192H32c-6.6 0-12-5.4-12-12V29c0-6.6 5.4-12 12-12h391c6.6 0 12 5.4 12 12v151c0 6.6-5.4 12-12 12z" fill="#fff"/><path d="M423 192H32c-6.6 0-12-5.4-12-12V29c0-6.6 5.4-12 12-12h391c6.6 0 12 5.4 12 12v151c0 6.6-5.4 12-12 12z" fill="none" stroke="#a6a6a6" stroke-width=".75"/><path class="st2" d="M143.3 41.6c-25.9 0-30.8 37-16.2 37 14.6 0 42.2-37 16.2-37zM100.2 74c7.8.5 16.3-29.7 1.7-27.8-14.6 1.9-9.5 27.3-1.7 27.8zM64.6 92.7c5.5-2.4.7-26.2-8.7-19.7-9.4 6.5 3.2 22.2 8.7 19.7zM80.2 80.3c6.6-1.3 6.9-28.3-4.8-23.5-11.7 4.8-1.8 24.8 4.8 23.5zM114.5 140.7c1.2 8.9-6.5 13.3-14.1 7.6-24-18.3 39.8-27.4 35.6-52.4-3.5-20.7-67.2-14.4-74.4 18.1-4.9 22 20.2 52.4 46.4 52.4 12.9 0 27.8-11.6 30.5-26.4 2.2-11.3-24.9-6.8-24 .7z"/><g><path class="st4" d="M180.6 55c0-5.1 3.1-8.2 7.2-8.2 2.2 0 3.6 1 4.5 1.9l-1.1 1.3c-.8-.8-1.8-1.5-3.4-1.5-3.2 0-5.2 2.4-5.2 6.4s1.9 6.4 5.2 6.4c1.1 0 2.2-.3 2.8-.9v-4.1h-3.3v-1.7h5.2v6.6c-1 1.1-2.7 1.8-4.9 1.8-4.1.2-7-2.8-7-8zM195.1 57.1c0-3.8 2.6-6.1 5.2-6.1 3 0 4.7 2.1 4.7 5.5 0 .4 0 .8-.1 1.1H197c.1 2.5 1.7 4.1 3.9 4.1 1.1 0 2-.4 2.9-.9l.7 1.3c-1 .7-2.3 1.2-3.9 1.2-3-.1-5.5-2.4-5.5-6.2zm8.2-1c0-2.3-1.1-3.6-2.9-3.6-1.6 0-3.1 1.3-3.3 3.6h6.2zM208 59.3v-6.5h-1.7v-1.5l1.8-.1.2-3.3h1.6v3.3h3.2v1.6h-3.2v6.5c0 1.4.5 2.3 1.8 2.3.4 0 .9-.2 1.3-.3l.4 1.5c-.7.2-1.4.4-2.2.4-2.4 0-3.2-1.6-3.2-3.9zM220.2 47.6c0-.8.6-1.3 1.4-1.3.8 0 1.4.5 1.4 1.3 0 .7-.6 1.3-1.4 1.3-.8-.1-1.4-.6-1.4-1.3zm.3 3.6h2v11.7h-2V51.2zM226.4 59.3v-6.5h-1.7v-1.5l1.8-.1.2-3.3h1.6v3.3h3.2v1.6h-3.2v6.5c0 1.4.5 2.3 1.8 2.3.4 0 1-.2 1.3-.3l.4 1.5c-.7.2-1.4.4-2.2.4-2.3 0-3.2-1.6-3.2-3.9zM238.1 57.1c0-3.9 2.5-6.1 5.4-6.1 2.9 0 5.4 2.2 5.4 6.1 0 3.9-2.5 6.1-5.4 6.1-2.8 0-5.4-2.2-5.4-6.1zm8.8 0c0-2.7-1.4-4.5-3.4-4.5s-3.4 1.8-3.4 4.5 1.4 4.5 3.4 4.5 3.4-1.8 3.4-4.5zM251.6 51.2h1.6l.2 1.7h.1c1.1-1.1 2.3-2 3.9-2 2.5 0 3.6 1.6 3.6 4.6v7.4h-2v-7.1c0-2.2-.7-3.1-2.2-3.1-1.2 0-2 .6-3.2 1.8v8.4h-2V51.2z"/><g><path d="M277.3 84.2c-5.8.2-10.3 2.2-13.6 6-3.5 4-5.2 9.6-5.2 16.7s1.7 12.6 5.2 16.7c3.5 4 8.2 6 14.3 6 6.1 0 10.9-2 14.3-6 3.5-4 5.2-9.6 5.2-16.7s-1.7-12.7-5.2-16.7-8.2-6-14.3-6h-.7zm.4 8.2h.3c3 0 5.3 1.3 7 3.8 1.6 2.5 2.5 6.1 2.5 10.8 0 4.6-.8 8.2-2.5 10.7-1.6 2.5-4 3.8-7 3.8s-5.3-1.3-6.9-3.8c-1.6-2.5-2.5-6.1-2.5-10.7s.8-8.2 2.5-10.8c1.6-2.4 3.8-3.7 6.6-3.8zM212.3 125.6c-5.1 4.2-12.6 4.1-15.7 4.1-6.3 0-11.3-2-15-6.1-3.7-4.1-5.5-9.6-5.5-16.6 0-7.1 1.9-12.6 5.6-16.7 3.8-4.1 8.9-6.1 15.5-6.1 2.5 0 4.9.3 7.2.8s4.5 1.4 6.6 2.4l-2.6 7.6c-1.2-.6-2.5-1.2-3.7-1.7-2.1-.7-4.2-1-6.3-1-3.9 0-6.9 1.3-9 3.8-2.1 2.5-3.2 6.1-3.2 10.8 0 4.6 1 8.2 3.1 10.8 2 2.5 5.1 3.8 8.7 3.8 3.6 0 5.9-.9 7.1-1.8v-7.6h-7.9v-7.6h15.3M219 85h6.2l19.5 26.4V85h8.4v43.9h-6.2l-19.5-26.4v26.4H219V85M304 85h12.4l8.7 27.4 8.7-27.4h10.5l4.8 43.9h-9.3l-2.9-27.5-8.7 27.6H322l-8.8-28.5-2.8 28.4h-9.3l4.8-43.9M355.7 85h26.5v8.6h-16.7v9h12.8v7.7h-12.8v10h17.2v8.6h-27V85"/><g><path d="M182.6 142.5h12.3v1.1h-11v8.2h10.2v1.1h-10.2v9.1h11v1.1h-12.3v-20.6zM208.5 152.3l-6.6-9.8h1.5l5.8 8.8 6.1-8.8h1.4l-6.9 9.7 7.5 10.7h-1.5l-6.8-9.7-6.6 9.7H201l7.5-10.6zM230 143.6h-7.2v-1.1h15.7v1.1h-7.2v19.3H230v-19.3zM245.5 142.5h12.3v1.1h-11v8.2H257v1.1h-10.2v9.1h11v1.1h-12.3v-20.6zM265 142.5h1.5l13.2 18.8v-18.8h1.2v20.4h-1.5L266.2 144v18.9H265v-20.4zM288.5 161.7l.4-1c2.1.9 4.4 1.4 6.4 1.4 3.6 0 5.8-1.7 5.8-4.3 0-6.1-12.3-3.2-12.3-10.2 0-3.3 2.8-5.4 7.2-5.4 1.9 0 3.8.4 5.4 1.1l-.4 1c-1.6-.7-3.4-1.1-5.2-1.1-3.7 0-5.8 1.5-5.8 4.1 0 6.1 12.3 3.1 12.3 10.1 0 3.4-2.8 5.6-7.2 5.6-2.1.2-4.5-.3-6.6-1.3zM309.7 142.5h1.2v20.4h-1.2v-20.4zM319 152.9c0-6.2 3.8-10.5 9.5-10.5 5.6 0 9.3 4.1 9.3 10.3 0 6.3-3.8 10.5-9.5 10.5-5.6 0-9.3-4.2-9.3-10.3zm17.5 0c0-5.6-3.3-9.4-8.2-9.4-4.8 0-8 3.7-8 9.2 0 5.6 3.2 9.4 8.2 9.4 4.8 0 8-3.7 8-9.2zM345.5 142.5h1.5l13.2 18.8v-18.8h1.2v20.4H360L346.7 144v18.9h-1.2v-20.4zM368.9 161.7l.4-1c2.1.9 4.4 1.4 6.4 1.4 3.6 0 5.8-1.7 5.8-4.3 0-6.1-12.3-3.2-12.3-10.2 0-3.3 2.8-5.4 7.2-5.4 1.9 0 3.8.4 5.4 1.1l-.4 1c-1.6-.7-3.4-1.1-5.2-1.1-3.7 0-5.8 1.5-5.8 4.1 0 6.1 12.3 3.1 12.3 10.1 0 3.4-2.8 5.6-7.2 5.6-2.1.2-4.4-.3-6.6-1.3z"/></g></g></g></svg>